<?xml version="1.0" standalone="no"?>
<!DOCTYPE svg PUBLIC "-//W3C//DTD SVG 20010904//EN"
 "http://www.w3.org/TR/2001/REC-SVG-20010904/DTD/svg10.dtd">
<svg version="1.0" xmlns="http://www.w3.org/2000/svg"
 width="500.000000pt" height="500.000000pt" viewBox="0 0 500.000000 500.000000"
 preserveAspectRatio="xMidYMid meet">

<g transform="translate(0.000000,500.000000) scale(0.100000,-0.100000)"
fill="#000000" stroke="none">
<path d="M1360 2750 l0 -570 1140 0 1140 0 0 570 0 570 -1140 0 -1140 0 0
-570z m1110 -3 l0 -543 -32 2 c-18 1 -261 3 -540 3 l-508 1 0 540 0 540 540 0
540 0 0 -543z m848 389 c98 -55 137 -135 130 -270 -5 -95 -33 -156 -93 -202
-58 -44 -99 -53 -237 -54 l-128 0 0 -135 0 -135 -135 0 -135 0 0 416 0 415
273 -3 272 -3 53 -29z"/>
<path d="M1580 2765 l0 -415 365 0 365 0 0 100 0 100 -230 0 -230 0 0 64 0 63
33 1 c17 0 105 0 195 1 l163 1 -3 93 -3 92 -192 3 -193 2 0 55 0 55 225 0 225
0 0 100 0 100 -360 0 -360 0 0 -415z"/>
<path d="M2990 2885 l0 -85 66 0 c63 0 101 11 116 34 4 6 8 30 8 54 0 66 -23
82 -115 82 l-75 0 0 -85z"/>
<path d="M1350 1985 l0 -75 55 0 c30 0 55 5 55 10 0 6 -18 10 -40 10 -33 0
-40 3 -40 20 0 16 7 20 35 20 24 0 35 5 35 15 0 10 -11 15 -35 15 -28 0 -35 4
-35 20 0 17 7 20 40 20 22 0 40 5 40 10 0 6 -25 10 -55 10 l-55 0 0 -75z"/>
<path d="M1490 1985 l0 -75 55 0 c30 0 55 5 55 10 0 6 -18 10 -40 10 l-40 0 0
65 c0 51 -3 65 -15 65 -12 0 -15 -15 -15 -75z"/>
<path d="M1620 1985 l0 -75 60 0 c33 0 60 4 60 10 0 6 -20 10 -45 10 -38 0
-45 3 -45 20 0 16 7 20 35 20 24 0 35 5 35 15 0 10 -11 15 -35 15 -28 0 -35 4
-35 20 0 17 7 20 40 20 22 0 40 5 40 10 0 6 -25 10 -55 10 l-55 0 0 -75z"/>
<path d="M1792 2053 c-21 -8 -43 -61 -36 -88 3 -14 16 -32 27 -40 37 -26 120
-14 103 14 -5 8 -13 8 -27 0 -25 -13 -56 -3 -70 22 -23 43 22 91 67 70 27 -12
46 5 23 20 -15 9 -66 11 -87 2z"/>
<path d="M1900 2050 c0 -5 11 -10 25 -10 24 0 25 -2 25 -65 0 -51 3 -65 15
-65 12 0 15 14 15 65 0 63 1 65 25 65 14 0 25 5 25 10 0 6 -28 10 -65 10 -37
0 -65 -4 -65 -10z"/>
<path d="M2050 1985 c0 -60 3 -75 15 -75 12 0 15 15 15 75 0 60 -3 75 -15 75
-12 0 -15 -15 -15 -75z"/>
<path d="M2100 2055 c0 -20 65 -145 76 -145 7 0 24 24 37 54 38 82 41 96 23
96 -9 0 -16 -4 -16 -9 0 -5 -10 -30 -22 -57 l-21 -49 -25 58 c-13 31 -31 57
-38 57 -8 0 -14 -2 -14 -5z"/>
<path d="M2297 2048 c-41 -32 -40 -105 2 -127 58 -32 125 3 125 64 0 27 -6 43
-23 56 -27 22 -79 25 -104 7z m83 -28 c11 -11 20 -27 20 -35 0 -8 -9 -24 -20
-35 -11 -11 -27 -20 -35 -20 -8 0 -24 9 -35 20 -11 11 -20 27 -20 35 0 8 9 24
20 35 11 11 27 20 35 20 8 0 24 -9 35 -20z"/>
<path d="M2654 1985 c-1 -57 2 -75 13 -75 7 0 13 8 13 19 0 13 10 20 36 24 45
7 64 23 64 52 0 34 -31 55 -81 55 l-45 0 0 -75z m74 49 c37 -10 26 -48 -15
-52 -29 -3 -33 0 -33 21 0 36 8 41 48 31z"/>
<path d="M2810 1985 c0 -60 3 -75 15 -75 8 0 15 9 15 20 0 14 7 20 23 20 12 0
28 -9 35 -20 7 -11 19 -20 27 -20 14 0 14 3 1 23 -13 19 -13 25 0 41 32 44 -2
86 -71 86 l-45 0 0 -75z m85 41 c27 -19 13 -46 -25 -46 -27 0 -30 3 -30 30 0
34 22 40 55 16z"/>
<path d="M2982 2037 c-47 -49 -12 -127 57 -127 39 0 81 38 81 75 0 65 -93 100
-138 52z m86 -13 c50 -34 2 -111 -53 -86 -45 21 -29 100 20 102 6 0 21 -7 33
-16z"/>
<path d="M3140 2051 c0 -5 12 -11 28 -13 24 -3 27 -8 30 -43 3 -53 -10 -74
-37 -58 -21 13 -38 2 -26 -17 9 -14 58 -13 73 2 7 7 12 39 12 75 l0 63 -40 0
c-22 0 -40 -4 -40 -9z"/>
<path d="M3260 1985 l0 -75 54 0 c30 0 58 5 61 10 4 6 -12 10 -39 10 -39 0
-46 3 -46 20 0 19 19 26 58 21 6 -1 12 5 12 14 0 11 -10 15 -35 15 -28 0 -35
4 -35 20 0 17 7 20 40 20 22 0 40 5 40 10 0 6 -25 10 -55 10 l-55 0 0 -75z"/>
<path d="M3432 2053 c-7 -3 -19 -18 -28 -35 -28 -53 9 -108 73 -108 35 0 58
14 49 29 -5 8 -13 8 -27 0 -25 -13 -56 -3 -70 22 -23 43 22 91 67 70 27 -12
46 5 23 20 -15 9 -66 11 -87 2z"/>
<path d="M3540 2050 c0 -5 11 -10 25 -10 24 0 25 -2 25 -65 0 -51 3 -65 15
-65 12 0 15 14 15 65 0 63 1 65 25 65 14 0 25 5 25 10 0 6 -28 10 -65 10 -37
0 -65 -4 -65 -10z"/>
<path d="M2510 1970 c0 -5 14 -10 30 -10 17 0 30 5 30 10 0 6 -13 10 -30 10
-16 0 -30 -4 -30 -10z"/>
</g>
</svg>
